# xmcd CD database file
# Copyright (C) 1997 Ti Kan
#
# Track frame offsets:
#  150
#  26287
#  64100
#  94650
#  108362
#  125350
#  164187
#  183640
#  202667
#  229075
#  269572
#
# Disc length: 3791 seconds
#
# Revision: 1
# Processed by: cddbd v1.4b41PL1 Copyright (c) Steve Scherf et al.
# Submitted via: CDWizzard Release:4.32
#
DISCID=940ecd0b
DTITLE=The Three Degrees - The Best In The Third Degree - Rare Tracks and L
DTITLE=ive -
DYEAR=1900
DGENRE=
TTITLE0=TSOP (Remix)
TTITLE1=Dirty Ol' Man (Remix)
TTITLE2=Love Is The Message (Remix)
TTITLE3=When Will I See You Again (Japanese Version)
TTITLE4=La Chanson Populaire (Live In Paris)
TTITLE5=Living For The City - For The Love Of Money
TTITLE6=Goodmorning Heartache
TTITLE7=I Am Woman - This Is My Life
TTITLE8=Cabaret - Maybe This Time
TTITLE9=McCarthur Park
TTITLE10=Love Train
EXTD=
EXTT0=
EXTT1=
EXTT2=
EXTT3=
EXTT4=
EXTT5=
EXTT6=
EXTT7=
EXTT8=
EXTT9=
EXTT10=
PLAYORDER=
